<?xml version="1.0" encoding="UTF-8"?>
<svg id="a" data-name="Layer 1" xmlns="http://www.w3.org/2000/svg" viewBox="0 0 595.382111 113.699862">
  <defs>
    <style>
      .b {
        fill: #ab222c;
      }

      .b, .c, .d {
        stroke-width: 0px;
      }

      .c {
        fill: #010101;
      }

      .d {
        fill: #e9f3f4;
      }
    </style>
  </defs>
  <rect class="c" width="595.382111" height="113.699862"/>
  <g>
    <path class="d" d="m93.491592,8.532476v88.622868h-17.211312v-37.659354l-24.648299,36.210918h-.106243l-24.70142-36.210918v37.659354H9.613006V8.532476h.956184l41.00967,57.132781L92.535408,8.532476h.956184Z"/>
    <path class="d" d="m107.621867,65.182445V10.678308h17.317555v54.450491c0,9.441661,7.383865,16.308324,15.670793,16.308324s15.777036-6.920309,15.777036-16.308324V10.678308h17.317555v54.504137c0,19.580718-14.820852,33.850502-33.04147,33.850502s-33.04147-14.269784-33.04147-33.850502Z"/>
    <path class="d" d="m183.372889,82.24181l13.758425-9.763536c3.771615,6.115622,9.243112,8.905203,16.626977,8.905203,8.074443,0,13.492819-3.32604,13.492819-7.939579,0-6.330205-10.252417-11.319265-19.229923-15.825512-9.614961-4.828122-20.186107-10.139057-20.186107-23.926029,0-14.967179,12.536635-24.838007,28.26055-24.838007,11.686693,0,21.354776,4.881768,25.232633,15.3427l-12.695999,8.958849c-2.549824-5.149997-7.490108-7.242184-12.271028-7.242184-6.427681,0-11.208601,3.755206-11.208601,8.207808,0,5.149997,6.480803,6.920309,16.308249,11.587494,14.183396,6.759371,23.10778,14.055201,23.10778,27.35936,0,15.771866-12.74912,25.803632-31.07598,25.803632-14.024032,0-24.382692-5.901038-30.119796-16.630199Z"/>
    <path class="d" d="m254.980447,10.678308h17.211312v86.477036h-17.211312V10.678308Z"/>
    <path class="d" d="m283.346885,53.970472c0-24.408841,20.346179-45.062475,44.463265-45.062475,11.15548.160937,21.036048,4.613539,30.012845,13.357805l-9.932981,13.67968c-5.843347-5.793747-12.855363-9.33437-20.239936-9.33437-13.757717,0-26.879395,12.338535-26.879395,27.466652,0,15.396346,13.599061,27.305714,26.826982,27.305714,7.861957,0,14.661488-4.238019,20.344763-9.870828l9.880568,14.055201c-7.543229,7.564058-16.732512,13.250514-29.694117,13.250514-24.702128,0-44.781993-20.546343-44.781993-44.847892Z"/>
    <path class="d" d="m451.921954,65.182445V10.678308h17.317555v54.450491c0,9.441661,7.383865,16.308324,15.670793,16.308324s15.777036-6.920309,15.777036-16.308324V10.678308h17.317555v54.504137c0,19.580718-14.820852,33.850502-33.04147,33.850502s-33.04147-14.269784-33.04147-33.850502Z"/>
    <path class="d" d="m585.769105,79.881395v17.273949h-51.633936V10.678308h17.211312v69.203087h34.422624Z"/>
    <path class="b" d="m438.020392,48.240678l-3.669569,1.340419c.413403,1.131744.759387,2.271934,1.03892,3.413932,3.072537,12.45755-1.549865,25.370387-11.243285,33.027503-2.578853,2.040662-5.515874,3.704613-8.76498,4.891446-16.572521,6.053607-35.031089-2.638187-41.144525-19.374497l-3.669569,1.340419c6.568438,17.981934,25.835072,27.676731,43.785611,22.506078l3.572951,9.781408,5.236159-1.912663-3.588167-9.823063c16.706295-7.785775,24.947402-27.393808,18.446454-45.190982Z"/>
    <path class="b" d="m414.028945,87.208151c14.573992-5.323585,22.02947-21.568552,16.653325-36.286433l-1.112103-3.044523-12.722159,4.647148-1.931547-5.287856,12.722159-4.647148-1.931608-5.288024-12.722159,4.647148-1.93259-5.290711,12.722159-4.647148-1.734785-4.749194c-.065587-.179554-.134064-.358243-.202479-.536764l-12.716504,4.645082-1.93259-5.290711,12.087141-4.415189c-4.209389-6.601341-10.887977-11.063101-18.286963-12.557615-4.877037-.984106-10.06793-.681042-15.06974,1.146018-5.001977,1.827121-9.16871,4.942209-12.262125,8.840997-4.693871,5.911601-6.924986,13.624849-5.885534,21.384104l12.084313-4.414156,1.93259,5.290711-12.713843,4.64411c.06276.180587.125581.361342.191169.540895l1.734785,4.749194,12.719498-4.646176,1.93259,5.290711-12.719498,4.646176,1.931608,5.288024,12.719498-4.646176,1.931547,5.287856-12.719498,4.646176,1.112103,3.044523c2.688594,7.360369,8.073755,12.940917,14.611708,16.019566,6.535126,3.079682,14.223951,3.65066,21.509533.989384Z"/>
  </g>
</svg>