<?xml version="1.0" encoding="UTF-8"?>
<svg id="a" data-name="Layer 1" xmlns="http://www.w3.org/2000/svg" viewBox="0 0 1080 1080">
  <defs>
    <style>
      .b {
        fill: #ab222c;
      }

      .b, .c {
        stroke-width: 0px;
      }
    </style>
  </defs>
  <rect class="c" width="1080" height="1080"/>
  <g>
    <g>
      <path class="b" d="m718.55,540l-17.22,6.29c1.94,5.31,3.56,10.66,4.88,16.02,14.42,58.46-7.27,119.06-52.76,155-12.1,9.58-25.89,17.39-41.13,22.96-77.77,28.41-164.4-12.38-193.09-90.92l-17.22,6.29c30.83,84.39,121.24,129.88,205.48,105.62l16.77,45.9,24.57-8.98-16.84-46.1c78.4-36.54,117.08-128.56,86.57-212.08Z"/>
      <path class="b" d="m605.96,722.87c68.39-24.98,103.38-101.22,78.15-170.29l-5.22-14.29-59.7,21.81-9.06-24.82,59.7-21.81-9.06-24.82-59.7,21.81-9.07-24.83,59.7-21.81-8.14-22.29c-.31-.84-.63-1.68-.95-2.52l-59.68,21.8-9.07-24.83,56.72-20.72c-19.75-30.98-51.1-51.92-85.82-58.93-22.89-4.62-47.25-3.2-70.72,5.38-23.47,8.57-43.03,23.19-57.55,41.49-22.03,27.74-32.5,63.94-27.62,100.35l56.71-20.72,9.07,24.83-59.67,21.79c.29.85.59,1.7.9,2.54l8.14,22.29,59.69-21.8,9.07,24.83-59.69,21.8,9.06,24.82,59.69-21.8,9.06,24.82-59.69,21.8,5.22,14.29c12.62,34.54,37.89,60.73,68.57,75.18,30.67,14.45,66.75,17.13,100.94,4.64Z"/>
    </g>
    <path class="b" d="m540,1002.54c-255.04,0-462.53-207.49-462.53-462.53S284.96,77.46,540,77.46s462.53,207.49,462.53,462.54-207.49,462.53-462.53,462.53Zm0-906.3c-244.69,0-443.76,199.07-443.76,443.77s199.07,443.76,443.76,443.76,443.76-199.07,443.76-443.76S784.69,96.24,540,96.24Z"/>
    <path class="b" d="m540,832.34c-78.09,0-151.5-30.41-206.71-85.62-55.22-55.22-85.62-128.63-85.62-206.71s30.41-151.5,85.62-206.71c55.22-55.22,128.63-85.62,206.71-85.62s151.5,30.41,206.71,85.62c55.22,55.22,85.62,128.63,85.62,206.71s-30.41,151.5-85.62,206.71c-55.21,55.22-128.63,85.62-206.71,85.62Zm0-565.91c-150.84,0-273.57,122.72-273.57,273.57s122.72,273.57,273.57,273.57,273.57-122.72,273.57-273.57-122.72-273.57-273.57-273.57Z"/>
    <g>
      <g>
        <path class="b" d="m862.24,299.17l-52.17,46.26-9.07-10.23,22.17-19.65-34.31,4.24-.06-.06,8.3-33.58-22.17,19.66-9.07-10.23,52.17-46.26.5.57-12.02,54.2,55.22-5.47.5.57Z"/>
        <path class="b" d="m847.82,358.45l38.41-19.07,6.11,12.33-38.38,19.04c-6.65,3.3-8.88,10.96-5.96,16.86,2.93,5.9,10.45,8.81,17.07,5.53l38.38-19.04,6.11,12.32-38.41,19.07c-13.8,6.85-29.09,1.29-35.53-11.68-6.43-12.97-1.61-28.51,12.19-35.35Z"/>
        <path class="b" d="m868.62,438.41l9.96,8.9c-4.01,4.01-5.15,8.74-3.82,14.46,1.46,6.25,4.99,9.84,8.52,9.02,4.85-1.13,6.82-9.96,8.65-17.71,1.96-8.3,4.12-17.43,14.68-19.9,11.47-2.68,21.3,5.26,24.13,17.42,2.11,9.04.12,17.4-7.2,22.27l-9.16-8.22c3.48-2.9,4.2-7.09,3.33-10.79-1.16-4.97-4.9-8-8.31-7.2-3.95.92-4.13,6.26-5.93,14.69-2.61,12.18-6.59,20.39-16.79,22.77-12.09,2.82-22.07-5.25-25.38-19.43-2.53-10.85.12-19.92,7.31-26.28Z"/>
        <path class="b" d="m938.56,513.18l.67,13.67-67.99,3.35-.67-13.67,67.99-3.35Z"/>
        <path class="b" d="m905.75,563.45c19.03,2.73,32.82,21.07,30.09,40.05-1.39,8.76-5.98,16.04-13.81,22.13l-9.54-9.35c5.18-3.95,8.73-9.07,9.57-14.89,1.56-10.83-6.58-22.55-18.37-24.24-12-1.72-22.83,7.64-24.32,18.06-.89,6.19,1.64,12.02,5.39,17.12l-12.08,6.21c-5.04-6.78-8.44-14.66-6.97-24.87,2.8-19.44,21.09-32.94,40.03-30.22Z"/>
        <path class="b" d="m890.37,649.32c18,7.63,26.49,28.51,18.9,46.43-7.59,17.93-28.52,26.4-46.52,18.77-17.85-7.56-26.24-28.45-18.63-46.42,7.58-17.88,28.41-26.35,46.25-18.79Zm-22.14,52.48c10.96,4.65,23.69-.51,28.34-11.48,4.62-10.93-.55-23.62-11.51-28.26-10.89-4.61-23.57.52-28.19,11.45-4.64,10.96.47,23.68,11.36,28.29Z"/>
        <path class="b" d="m837.35,738.2l33.83,26.41-8.48,10.85-33.79-26.38c-5.86-4.57-13.74-3.27-17.79,1.92-4.06,5.2-3.43,13.24,2.4,17.79l33.8,26.39-8.47,10.85-33.83-26.41c-12.15-9.49-13.76-25.69-4.84-37.11,8.91-11.42,25.03-13.79,37.18-4.31Z"/>
        <path class="b" d="m740.71,821.3l-8.63-10.51,31.74-26.03,43.17,52.64-10.58,8.67-34.55-42.12-21.15,17.35Z"/>
      </g>
      <g>
        <path class="b" d="m171.39,378.89l65.99,22.49-4.41,12.94-28.04-9.56,20.64,27.73-.03.08-33.3,9.39,28.04,9.55-4.41,12.94-65.99-22.49.25-.72,53.05-16.34-32.05-45.3.25-.72Z"/>
        <path class="b" d="m230.05,362.13l-35.56-23.97,7.7-11.41,35.52,23.95c6.16,4.15,13.91,2.31,17.6-3.15,3.68-5.46,2.49-13.44-3.63-17.57l-35.52-23.95,7.69-11.41,35.56,23.97c12.77,8.61,15.5,24.65,7.4,36.66-8.09,12-23.98,15.49-36.76,6.88Z"/>
        <path class="b" d="m289.28,304.54l2.81-13.06c5.47,1.49,10.15.16,14.46-3.82,4.71-4.36,6.09-9.2,3.63-11.87-3.38-3.65-12.03-1.01-19.67,1.23-8.19,2.4-17.19,5.03-24.56-2.93-7.99-8.65-5.96-21.11,3.22-29.59,6.82-6.31,15.07-8.7,22.91-4.75l-2.62,12.02c-4.24-1.6-8.24-.14-11.03,2.44-3.75,3.47-4.53,8.21-2.15,10.79,2.75,2.97,7.48.5,15.71-2.1,11.88-3.75,20.99-4.35,28.09,3.34,8.43,9.11,6.35,21.78-4.34,31.67-8.18,7.57-17.37,9.75-26.45,6.64Z"/>
        <path class="b" d="m319.71,206.78l11.54-7.34,36.51,57.45-11.55,7.34-36.51-57.45Z"/>
        <path class="b" d="m379.63,210.47c-7.02-17.9,2.1-38.95,19.95-45.96,8.31-3.13,16.9-2.73,26.06,1.07l-3.42,12.92c-5.99-2.55-12.2-3.11-17.67-.96-10.19,4-16.35,16.86-11.99,27.95,4.43,11.29,17.93,16.07,27.72,12.22,5.82-2.29,9.63-7.37,12.22-13.15l11.36,7.43c-3.41,7.74-8.57,14.58-18.17,18.35-18.29,7.18-39.06-2.05-46.06-19.86Z"/>
        <path class="b" d="m461.87,181.38c-2.26-19.42,11.69-37.12,31.03-39.38,19.34-2.26,37.04,11.74,39.31,31.16,2.25,19.25-11.76,36.88-31.15,39.14-19.29,2.25-36.94-11.67-39.2-30.92Zm56.58-6.69c-1.39-11.83-12.16-20.35-23.98-18.97-11.79,1.38-20.27,12.15-18.88,23.98,1.37,11.74,12.1,20.22,23.88,18.85,11.83-1.38,20.35-12.11,18.98-23.86Z"/>
        <path class="b" d="m565.34,183.56l6.24-42.46,13.63,2-6.23,42.42c-1.08,7.36,3.95,13.56,10.46,14.52,6.52.96,13.21-3.57,14.28-10.88l6.23-42.42,13.63,2-6.24,42.46c-2.24,15.25-15.53,24.66-29.87,22.55-14.33-2.11-24.36-14.94-22.12-30.19Z"/>
        <path class="b" d="m685.36,226.5l-4.88,12.69-38.31-14.73,24.42-63.55,12.77,4.91-19.54,50.85,25.55,9.82Z"/>
      </g>
      <g>
        <path class="b" d="m581.06,951.48l-10.23-68.97,13.53-2,4.34,29.3,15.19-31.05h.09s23.59,25.29,23.59,25.29l-4.35-29.3,13.52-2.01,10.23,68.96-.75.11-38.82-39.68-25.59,49.24-.75.11Z"/>
        <path class="b" d="m539.3,907l-5.02,42.59-13.67-1.62,5.02-42.54c.87-7.38-4.32-13.43-10.86-14.2-6.54-.77-13.08,3.94-13.96,11.27l-5.02,42.55-13.67-1.61,5.03-42.59c1.81-15.3,14.82-25.07,29.2-23.37,14.37,1.7,24.75,14.23,22.95,29.53Z"/>
        <path class="b" d="m460.97,880.74l-12.9,3.48c-1.17-5.55-4.51-9.09-10.02-11.1-6.03-2.19-10.97-1.2-12.21,2.21-1.7,4.68,4.62,11.15,10.11,16.92,5.88,6.19,12.35,12.98,8.64,23.18-4.03,11.07-16.04,14.96-27.78,10.69-8.73-3.17-14.63-9.4-14.72-18.19l11.89-3.18c.52,4.5,3.64,7.39,7.22,8.68,4.8,1.75,9.38.27,10.58-3.02,1.38-3.8-2.98-6.87-9.07-13-8.77-8.85-13.47-16.66-9.9-26.5,4.23-11.66,16.45-15.61,30.14-10.64,10.48,3.81,16.63,10.98,18.02,20.47Z"/>
        <path class="b" d="m360.01,898.39l-11.81-6.9,34.35-58.77,11.81,6.9-34.35,58.77Z"/>
        <path class="b" d="m335.96,843.5c-12.69,14.44-35.59,15.98-49.99,3.31-6.58-5.95-10.17-13.77-10.99-23.66l13.05-2.88c.48,6.5,2.83,12.27,7.24,16.15,8.22,7.22,22.47,6.81,30.34-2.14,8.01-9.11,6.07-23.3-1.83-30.24-4.69-4.12-10.96-5.19-17.29-4.84l1.4-13.51c8.44-.51,16.89.94,24.64,7.75,14.76,12.97,16.07,35.66,3.44,50.05Z"/>
        <path class="b" d="m272.44,783.71c-16.22,10.91-38.35,6.61-49.22-9.55-10.87-16.15-6.53-38.3,9.7-49.22,16.08-10.82,38.17-6.43,49.06,9.76,10.83,16.12,6.54,38.19-9.54,49.01Zm-31.86-47.23c-9.88,6.65-12.52,20.13-5.88,30,6.63,9.84,20.08,12.46,29.96,5.81,9.81-6.6,12.44-20.02,5.82-29.87-6.64-9.88-20.09-12.54-29.9-5.95Z"/>
        <path class="b" d="m226.98,690.73l-40.61,13.9-4.45-13.02,40.56-13.89c7.03-2.41,10.24-9.71,8.12-15.95-2.14-6.24-9.23-10.11-16.22-7.71l-40.56,13.9-4.46-13.03,40.6-13.9c14.59-5,29.04,2.52,33.73,16.22,4.69,13.71-2.12,28.49-16.7,33.49Z"/>
        <path class="b" d="m210.18,564.38l13.52-1.48,4.46,40.81-67.68,7.39-1.49-13.6,54.16-5.92-2.97-27.2Z"/>
      </g>
    </g>
    <circle class="b" cx="174.72" cy="515.34" r="18.09"/>
    <circle class="b" cx="741.93" cy="232.32" r="18.09"/>
    <circle class="b" cx="710.39" cy="872.34" r="18.09"/>
  </g>
</svg>